<svg xmlns="http://www.w3.org/2000/svg" xmlns:xlink="http://www.w3.org/1999/xlink" width="500" zoomAndPan="magnify" viewBox="0 0 375 374.999991" height="500" preserveAspectRatio="xMidYMid meet" version="1.0"><defs><g/><clipPath id="5d712a7052"><path d="M 152.425781 128.761719 L 222.925781 128.761719 L 222.925781 194.761719 L 152.425781 194.761719 Z M 152.425781 128.761719 " clip-rule="nonzero"/></clipPath></defs><rect x="-37.5" width="450" fill="#ffffff" y="-37.499999" height="449.999989" fill-opacity="1"/><rect x="-37.5" width="450" fill="#ffffff" y="-37.499999" height="449.999989" fill-opacity="1"/><rect x="-37.5" width="450" fill="#ffffff" y="-37.499999" height="449.999989" fill-opacity="1"/><g clip-path="url(#5d712a7052)"><path fill="#9917b5" d="M 198.554688 170.226562 L 222.914062 145.863281 L 222.914062 194.589844 L 214.652344 186.324219 L 214.652344 166.984375 L 204.980469 176.652344 Z M 222.914062 128.761719 L 222.914062 141.273438 L 193.847656 170.339844 L 202.570312 179.0625 L 187.761719 193.871094 L 172.785156 178.890625 L 181.164062 170.511719 L 152.4375 141.789062 L 152.4375 128.933594 L 187.589844 164.085938 Z M 192.125 179.0625 L 187.53125 174.472656 L 183.113281 178.890625 L 187.703125 183.484375 Z M 152.4375 145.921875 L 152.4375 194.761719 L 160.933594 186.265625 L 160.933594 167.039062 L 170.546875 176.652344 L 176.859375 170.339844 Z M 152.4375 145.921875 " fill-opacity="1" fill-rule="nonzero"/></g><g fill="#021622" fill-opacity="1"><g transform="translate(76.393873, 221.003613)"><g><path d="M 20.296875 -18.53125 L 20.296875 0 L 18.203125 0 L 18.203125 -15.34375 L 11.34375 -6.53125 L 4.375 -15.34375 L 4.375 0 L 2.265625 0 L 2.265625 -18.53125 L 4.703125 -18.53125 L 11.34375 -9.75 L 17.859375 -18.53125 Z M 20.296875 -18.53125 "/></g></g></g><g fill="#021622" fill-opacity="1"><g transform="translate(102.40279, 221.003613)"><g><path d="M 18.453125 0 L 16.125 0 L 13.859375 -5.375 L 4.671875 -5.375 L 2.40625 0 L 0.078125 0 L 7.953125 -18.53125 L 10.578125 -18.53125 Z M 13.046875 -7.3125 L 9.265625 -16.359375 L 5.484375 -7.3125 Z M 13.046875 -7.3125 "/></g></g></g><g fill="#021622" fill-opacity="1"><g transform="translate(124.380263, 221.003613)"><g><path d="M 15.421875 -16.515625 L 8.953125 -16.515625 L 8.953125 0 L 6.859375 0 L 6.859375 -16.515625 L 0.390625 -16.515625 L 0.390625 -18.53125 L 15.421875 -18.53125 Z M 15.421875 -16.515625 "/></g></g></g><g fill="#021622" fill-opacity="1"><g transform="translate(143.642098, 221.003613)"><g><path d="M 4.375 -16.515625 L 4.375 -10.296875 L 14.671875 -10.296875 L 14.671875 -8.265625 L 4.375 -8.265625 L 4.375 -2.015625 L 15.90625 -2.015625 L 15.90625 0 L 2.265625 0 L 2.265625 -18.53125 L 15.90625 -18.53125 L 15.90625 -16.515625 Z M 4.375 -16.515625 "/></g></g></g><g fill="#021622" fill-opacity="1"><g transform="translate(164.107772, 221.003613)"><g><path d="M 10.5 -18.765625 C 13.257812 -18.765625 15.523438 -17.835938 17.296875 -15.984375 C 19.035156 -14.191406 19.90625 -11.953125 19.90625 -9.265625 C 19.90625 -6.578125 19.035156 -4.335938 17.296875 -2.546875 C 15.523438 -0.703125 13.257812 0.21875 10.5 0.21875 C 7.738281 0.21875 5.472656 -0.703125 3.703125 -2.546875 C 1.960938 -4.335938 1.09375 -6.578125 1.09375 -9.265625 C 1.09375 -11.953125 1.960938 -14.191406 3.703125 -15.984375 C 5.472656 -17.835938 7.738281 -18.765625 10.5 -18.765625 Z M 10.5 -1.8125 C 12.695312 -1.8125 14.476562 -2.53125 15.84375 -3.96875 C 17.15625 -5.351562 17.8125 -7.117188 17.8125 -9.265625 C 17.8125 -11.410156 17.15625 -13.175781 15.84375 -14.5625 C 14.476562 -16 12.695312 -16.71875 10.5 -16.71875 C 8.300781 -16.71875 6.519531 -16 5.15625 -14.5625 C 3.84375 -13.175781 3.1875 -11.410156 3.1875 -9.265625 C 3.1875 -7.117188 3.84375 -5.351562 5.15625 -3.96875 C 6.519531 -2.53125 8.300781 -1.8125 10.5 -1.8125 Z M 10.5 -1.8125 "/></g></g></g><g fill="#021622" fill-opacity="1"><g transform="translate(188.548906, 221.003613)"><g/></g></g><g fill="#021622" fill-opacity="1"><g transform="translate(197.956086, 221.003613)"><g><path d="M 4.375 -18.53125 L 4.375 -2.015625 L 14.46875 -2.015625 L 14.46875 0 L 2.265625 0 L 2.265625 -18.53125 Z M 4.375 -18.53125 "/></g></g></g><g fill="#021622" fill-opacity="1"><g transform="translate(216.322045, 221.003613)"><g><path d="M 10.5 -18.765625 C 13.257812 -18.765625 15.523438 -17.835938 17.296875 -15.984375 C 19.035156 -14.191406 19.90625 -11.953125 19.90625 -9.265625 C 19.90625 -6.578125 19.035156 -4.335938 17.296875 -2.546875 C 15.523438 -0.703125 13.257812 0.21875 10.5 0.21875 C 7.738281 0.21875 5.472656 -0.703125 3.703125 -2.546875 C 1.960938 -4.335938 1.09375 -6.578125 1.09375 -9.265625 C 1.09375 -11.953125 1.960938 -14.191406 3.703125 -15.984375 C 5.472656 -17.835938 7.738281 -18.765625 10.5 -18.765625 Z M 10.5 -1.8125 C 12.695312 -1.8125 14.476562 -2.53125 15.84375 -3.96875 C 17.15625 -5.351562 17.8125 -7.117188 17.8125 -9.265625 C 17.8125 -11.410156 17.15625 -13.175781 15.84375 -14.5625 C 14.476562 -16 12.695312 -16.71875 10.5 -16.71875 C 8.300781 -16.71875 6.519531 -16 5.15625 -14.5625 C 3.84375 -13.175781 3.1875 -11.410156 3.1875 -9.265625 C 3.1875 -7.117188 3.84375 -5.351562 5.15625 -3.96875 C 6.519531 -2.53125 8.300781 -1.8125 10.5 -1.8125 Z M 10.5 -1.8125 "/></g></g></g><g fill="#021622" fill-opacity="1"><g transform="translate(240.763179, 221.003613)"><g><path d="M 4.375 0 L 2.265625 0 L 2.265625 -18.53125 L 10.609375 -18.53125 C 12.566406 -18.53125 14.125 -17.988281 15.28125 -16.90625 C 16.425781 -15.820312 17 -14.378906 17 -12.578125 C 17 -10.742188 16.421875 -9.289062 15.265625 -8.21875 C 14.117188 -7.144531 12.566406 -6.609375 10.609375 -6.609375 L 4.375 -6.609375 Z M 4.375 -16.546875 L 4.375 -8.5625 L 10.46875 -8.5625 C 11.925781 -8.5625 13.023438 -8.914062 13.765625 -9.625 C 14.515625 -10.34375 14.890625 -11.320312 14.890625 -12.5625 C 14.890625 -13.800781 14.515625 -14.773438 13.765625 -15.484375 C 13.023438 -16.191406 11.925781 -16.546875 10.46875 -16.546875 Z M 4.375 -16.546875 "/></g></g></g><g fill="#021622" fill-opacity="1"><g transform="translate(261.788778, 221.003613)"><g><path d="M 4.375 -16.515625 L 4.375 -10.296875 L 14.671875 -10.296875 L 14.671875 -8.265625 L 4.375 -8.265625 L 4.375 -2.015625 L 15.90625 -2.015625 L 15.90625 0 L 2.265625 0 L 2.265625 -18.53125 L 15.90625 -18.53125 L 15.90625 -16.515625 Z M 4.375 -16.515625 "/></g></g></g><g fill="#021622" fill-opacity="1"><g transform="translate(282.25444, 221.003613)"><g><path d="M 3.390625 -1.953125 L 15.484375 -1.953125 L 15.484375 0 L 0.8125 0 L 0.8125 -1.984375 L 12.90625 -16.578125 L 0.984375 -16.578125 L 0.984375 -18.53125 L 15.484375 -18.53125 L 15.484375 -16.515625 Z M 3.390625 -1.953125 "/></g></g></g><g fill="#021622" fill-opacity="1"><g transform="translate(107.707834, 242.204281)"><g><path d="M 3.640625 0 L 2.609375 0 L 0.109375 -8.03125 L 1.0625 -8.03125 L 3.125 -1.28125 L 5.296875 -8.03125 L 6.34375 -8.03125 L 8.5 -1.28125 L 10.5625 -8.03125 L 11.515625 -8.03125 L 9.015625 0 L 7.984375 0 L 5.8125 -6.75 Z M 3.640625 0 "/></g></g></g><g fill="#021622" fill-opacity="1"><g transform="translate(124.453427, 242.204281)"><g><path d="M 1.890625 -7.15625 L 1.890625 -4.46875 L 6.359375 -4.46875 L 6.359375 -3.578125 L 1.890625 -3.578125 L 1.890625 -0.875 L 6.890625 -0.875 L 6.890625 0 L 0.984375 0 L 0.984375 -8.03125 L 6.890625 -8.03125 L 6.890625 -7.15625 Z M 1.890625 -7.15625 "/></g></g></g><g fill="#021622" fill-opacity="1"><g transform="translate(136.94983, 242.204281)"><g><path d="M 7.125 -5.90625 C 7.125 -5.03125 6.765625 -4.429688 6.046875 -4.109375 C 6.710938 -3.890625 7.164062 -3.488281 7.40625 -2.90625 C 7.5 -2.675781 7.546875 -2.410156 7.546875 -2.109375 C 7.546875 -1.140625 7.03125 -0.492188 6 -0.171875 C 5.65625 -0.0546875 5.253906 0 4.796875 0 L 0.984375 0 L 0.984375 -8.03125 L 4.59375 -8.03125 C 5.457031 -8.03125 6.113281 -7.796875 6.5625 -7.328125 C 6.9375 -6.960938 7.125 -6.488281 7.125 -5.90625 Z M 1.890625 -4.4375 L 4.59375 -4.4375 C 5.332031 -4.4375 5.828125 -4.691406 6.078125 -5.203125 C 6.171875 -5.378906 6.21875 -5.570312 6.21875 -5.78125 C 6.21875 -5.988281 6.1875 -6.171875 6.125 -6.328125 C 6.070312 -6.484375 5.984375 -6.625 5.859375 -6.75 C 5.597656 -7.03125 5.207031 -7.171875 4.6875 -7.171875 L 1.890625 -7.171875 Z M 4.890625 -0.859375 C 5.453125 -0.859375 5.878906 -0.972656 6.171875 -1.203125 C 6.472656 -1.429688 6.625 -1.757812 6.625 -2.1875 C 6.625 -2.59375 6.476562 -2.925781 6.1875 -3.1875 C 5.863281 -3.476562 5.398438 -3.625 4.796875 -3.625 L 1.890625 -3.625 L 1.890625 -0.859375 Z M 4.890625 -0.859375 "/></g></g></g><g fill="#021622" fill-opacity="1"><g transform="translate(150.101817, 242.204281)"><g/></g></g><g fill="#021622" fill-opacity="1"><g transform="translate(157.802689, 242.204281)"><g><path d="M 4.375 -8.03125 C 4.851562 -8.03125 5.3125 -7.9375 5.75 -7.75 C 6.195312 -7.570312 6.59375 -7.3125 6.9375 -6.96875 C 7.6875 -6.195312 8.0625 -5.210938 8.0625 -4.015625 C 8.0625 -2.816406 7.6875 -1.832031 6.9375 -1.0625 C 6.59375 -0.71875 6.195312 -0.453125 5.75 -0.265625 C 5.3125 -0.0859375 4.851562 0 4.375 0 L 0.984375 0 L 0.984375 -8.03125 Z M 4.328125 -0.859375 C 5.171875 -0.859375 5.859375 -1.171875 6.390625 -1.796875 C 6.898438 -2.390625 7.15625 -3.128906 7.15625 -4.015625 C 7.15625 -4.898438 6.898438 -5.640625 6.390625 -6.234375 C 5.859375 -6.859375 5.171875 -7.171875 4.328125 -7.171875 L 1.890625 -7.171875 L 1.890625 -0.859375 Z M 4.328125 -0.859375 "/></g></g></g><g fill="#021622" fill-opacity="1"><g transform="translate(171.464581, 242.204281)"><g><path d="M 1.890625 -7.15625 L 1.890625 -4.46875 L 6.359375 -4.46875 L 6.359375 -3.578125 L 1.890625 -3.578125 L 1.890625 -0.875 L 6.890625 -0.875 L 6.890625 0 L 0.984375 0 L 0.984375 -8.03125 L 6.890625 -8.03125 L 6.890625 -7.15625 Z M 1.890625 -7.15625 "/></g></g></g><g fill="#021622" fill-opacity="1"><g transform="translate(183.960985, 242.204281)"><g><path d="M 7.59375 -8.03125 L 4.328125 0 L 3.296875 0 L 0.03125 -8.03125 L 1.03125 -8.03125 L 3.8125 -1.03125 L 6.59375 -8.03125 Z M 7.59375 -8.03125 "/></g></g></g><g fill="#021622" fill-opacity="1"><g transform="translate(196.700199, 242.204281)"><g><path d="M 1.890625 -7.15625 L 1.890625 -4.46875 L 6.359375 -4.46875 L 6.359375 -3.578125 L 1.890625 -3.578125 L 1.890625 -0.875 L 6.890625 -0.875 L 6.890625 0 L 0.984375 0 L 0.984375 -8.03125 L 6.890625 -8.03125 L 6.890625 -7.15625 Z M 1.890625 -7.15625 "/></g></g></g><g fill="#021622" fill-opacity="1"><g transform="translate(209.196597, 242.204281)"><g><path d="M 1.890625 -8.03125 L 1.890625 -0.875 L 6.28125 -0.875 L 6.28125 0 L 0.984375 0 L 0.984375 -8.03125 Z M 1.890625 -8.03125 "/></g></g></g><g fill="#021622" fill-opacity="1"><g transform="translate(220.782446, 242.204281)"><g><path d="M 4.546875 -8.140625 C 5.742188 -8.140625 6.726562 -7.738281 7.5 -6.9375 C 8.25 -6.15625 8.625 -5.179688 8.625 -4.015625 C 8.625 -2.847656 8.25 -1.878906 7.5 -1.109375 C 6.726562 -0.304688 5.742188 0.09375 4.546875 0.09375 C 3.347656 0.09375 2.367188 -0.304688 1.609375 -1.109375 C 0.847656 -1.878906 0.46875 -2.847656 0.46875 -4.015625 C 0.46875 -5.179688 0.847656 -6.15625 1.609375 -6.9375 C 2.367188 -7.738281 3.347656 -8.140625 4.546875 -8.140625 Z M 4.546875 -0.796875 C 5.503906 -0.796875 6.28125 -1.101562 6.875 -1.71875 C 7.4375 -2.320312 7.71875 -3.085938 7.71875 -4.015625 C 7.71875 -4.953125 7.4375 -5.71875 6.875 -6.3125 C 6.28125 -6.9375 5.503906 -7.25 4.546875 -7.25 C 3.597656 -7.25 2.828125 -6.9375 2.234375 -6.3125 C 1.671875 -5.71875 1.390625 -4.953125 1.390625 -4.015625 C 1.390625 -3.085938 1.671875 -2.320312 2.234375 -1.71875 C 2.828125 -1.101562 3.597656 -0.796875 4.546875 -0.796875 Z M 4.546875 -0.796875 "/></g></g></g><g fill="#021622" fill-opacity="1"><g transform="translate(235.002805, 242.204281)"><g><path d="M 1.890625 0 L 0.984375 0 L 0.984375 -8.03125 L 4.59375 -8.03125 C 5.445312 -8.03125 6.125 -7.796875 6.625 -7.328125 C 7.125 -6.859375 7.375 -6.234375 7.375 -5.453125 C 7.375 -4.660156 7.125 -4.03125 6.625 -3.5625 C 6.125 -3.09375 5.445312 -2.859375 4.59375 -2.859375 L 1.890625 -2.859375 Z M 1.890625 -7.171875 L 1.890625 -3.71875 L 4.546875 -3.71875 C 5.171875 -3.71875 5.644531 -3.867188 5.96875 -4.171875 C 6.289062 -4.484375 6.453125 -4.90625 6.453125 -5.4375 C 6.453125 -5.976562 6.289062 -6.398438 5.96875 -6.703125 C 5.644531 -7.015625 5.171875 -7.171875 4.546875 -7.171875 Z M 1.890625 -7.171875 "/></g></g></g><g fill="#021622" fill-opacity="1"><g transform="translate(247.742012, 242.204281)"><g><path d="M 1.890625 -7.15625 L 1.890625 -4.46875 L 6.359375 -4.46875 L 6.359375 -3.578125 L 1.890625 -3.578125 L 1.890625 -0.875 L 6.890625 -0.875 L 6.890625 0 L 0.984375 0 L 0.984375 -8.03125 L 6.890625 -8.03125 L 6.890625 -7.15625 Z M 1.890625 -7.15625 "/></g></g></g><g fill="#021622" fill-opacity="1"><g transform="translate(260.23841, 242.204281)"><g><path d="M 1.890625 0 L 0.984375 0 L 0.984375 -8.03125 L 4.828125 -8.03125 C 5.648438 -8.03125 6.304688 -7.804688 6.796875 -7.359375 C 7.296875 -6.910156 7.546875 -6.300781 7.546875 -5.53125 C 7.546875 -4.519531 7.125 -3.832031 6.28125 -3.46875 C 6.050781 -3.363281 5.820312 -3.285156 5.59375 -3.234375 L 7.703125 0 L 6.625 0 L 4.6875 -3.078125 L 1.890625 -3.078125 Z M 1.890625 -3.953125 L 4.671875 -3.953125 C 5.535156 -3.953125 6.128906 -4.21875 6.453125 -4.75 C 6.566406 -4.945312 6.625 -5.207031 6.625 -5.53125 C 6.625 -6.03125 6.445312 -6.425781 6.09375 -6.71875 C 5.75 -7.019531 5.289062 -7.171875 4.71875 -7.171875 L 1.890625 -7.171875 Z M 1.890625 -3.953125 "/></g></g></g></svg>